<mxfile host="app.diagrams.net" modified="2022-02-18T08:34:23.954Z" agent="5.0 (X11; Linux x86_64) AppleWebKit/537.36 (KHTML, like Gecko) Chrome/84.0.4147.89 Safari/537.36" etag="oPzbSVHwsTkgwtZOHQPX" version="16.6.1" type="github">
  <diagram id="C5RBs43oDa-KdzZeNtuy" name="Page-1">
    <mxGraphModel dx="943" dy="550" grid="1" gridSize="10" guides="1" tooltips="1" connect="1" arrows="1" fold="1" page="1" pageScale="1" pageWidth="827" pageHeight="1169" math="0" shadow="0">
      <root>
        <mxCell id="WIyWlLk6GJQsqaUBKTNV-0" />
        <mxCell id="WIyWlLk6GJQsqaUBKTNV-1" parent="WIyWlLk6GJQsqaUBKTNV-0" />
        <mxCell id="WIyWlLk6GJQsqaUBKTNV-2" value="" style="rounded=0;html=1;jettySize=auto;orthogonalLoop=1;fontSize=11;endArrow=block;endFill=0;endSize=8;strokeWidth=1;shadow=0;labelBackgroundColor=none;edgeStyle=orthogonalEdgeStyle;entryX=0.5;entryY=0;entryDx=0;entryDy=0;" parent="WIyWlLk6GJQsqaUBKTNV-1" source="WIyWlLk6GJQsqaUBKTNV-3" target="rdsL-xD0S33hwiKFE4rl-6" edge="1">
          <mxGeometry relative="1" as="geometry" />
        </mxCell>
        <mxCell id="WIyWlLk6GJQsqaUBKTNV-3" value="&lt;p class=&quot;MsoNormal&quot; style=&quot;margin: 0pt 0pt 0.0001pt ; text-align: justify ; font-family: &amp;#34;times new roman&amp;#34; ; font-size: 10.5pt&quot;&gt;&lt;span style=&quot;font-size: 10.5pt&quot;&gt;.&lt;/span&gt;&lt;span style=&quot;font-size: 12pt&quot;&gt;/cmd/generate/generate.go&lt;/span&gt;&lt;span style=&quot;font-size: 12pt&quot;&gt;&amp;nbsp;-&amp;gt; &lt;/span&gt;&lt;span style=&quot;font-size: 12pt&quot;&gt;type Schema struct&lt;/span&gt;&lt;span style=&quot;font-size: 12pt&quot;&gt;&lt;font face=&quot;宋体&quot;&gt;中添加&lt;/font&gt;&lt;/span&gt;&lt;/p&gt;&lt;span style=&quot;font-size: 16px ; text-align: justify&quot;&gt;istio后面版本&lt;/span&gt;&lt;span style=&quot;font-size: 12pt ; text-align: justify&quot;&gt;新增加的crd类型的go代码中的类&lt;/span&gt;&lt;span style=&quot;font-size: 16px ; text-align: justify&quot;&gt;&lt;br&gt;&lt;/span&gt;" style="rounded=1;whiteSpace=wrap;html=1;fontSize=12;glass=0;strokeWidth=1;shadow=0;" parent="WIyWlLk6GJQsqaUBKTNV-1" vertex="1">
          <mxGeometry x="30" y="40" width="380" height="90" as="geometry" />
        </mxCell>
        <mxCell id="WIyWlLk6GJQsqaUBKTNV-4" value="No" style="rounded=0;html=1;jettySize=auto;orthogonalLoop=1;fontSize=11;endArrow=block;endFill=0;endSize=8;strokeWidth=1;shadow=0;labelBackgroundColor=none;edgeStyle=orthogonalEdgeStyle;" parent="WIyWlLk6GJQsqaUBKTNV-1" source="WIyWlLk6GJQsqaUBKTNV-6" target="WIyWlLk6GJQsqaUBKTNV-10" edge="1">
          <mxGeometry y="20" relative="1" as="geometry">
            <mxPoint as="offset" />
          </mxGeometry>
        </mxCell>
        <mxCell id="WIyWlLk6GJQsqaUBKTNV-5" value="Yes" style="edgeStyle=orthogonalEdgeStyle;rounded=0;html=1;jettySize=auto;orthogonalLoop=1;fontSize=11;endArrow=block;endFill=0;endSize=8;strokeWidth=1;shadow=0;labelBackgroundColor=none;" parent="WIyWlLk6GJQsqaUBKTNV-1" source="WIyWlLk6GJQsqaUBKTNV-6" target="WIyWlLk6GJQsqaUBKTNV-7" edge="1">
          <mxGeometry y="10" relative="1" as="geometry">
            <mxPoint as="offset" />
          </mxGeometry>
        </mxCell>
        <mxCell id="WIyWlLk6GJQsqaUBKTNV-6" value="该新增crd类型中，是否内嵌有哪一层的属性是接口类型的属性" style="rhombus;whiteSpace=wrap;html=1;shadow=0;fontFamily=Helvetica;fontSize=12;align=center;strokeWidth=1;spacing=6;spacingTop=-4;" parent="WIyWlLk6GJQsqaUBKTNV-1" vertex="1">
          <mxGeometry x="80" y="330" width="280" height="120" as="geometry" />
        </mxCell>
        <mxCell id="rdsL-xD0S33hwiKFE4rl-5" style="edgeStyle=orthogonalEdgeStyle;rounded=0;orthogonalLoop=1;jettySize=auto;html=1;entryX=1;entryY=0.5;entryDx=0;entryDy=0;" edge="1" parent="WIyWlLk6GJQsqaUBKTNV-1" source="WIyWlLk6GJQsqaUBKTNV-7" target="WIyWlLk6GJQsqaUBKTNV-10">
          <mxGeometry relative="1" as="geometry">
            <mxPoint x="604.9999999999998" y="537" as="targetPoint" />
            <Array as="points">
              <mxPoint x="610" y="617" />
              <mxPoint x="350" y="617" />
            </Array>
          </mxGeometry>
        </mxCell>
        <mxCell id="WIyWlLk6GJQsqaUBKTNV-7" value="&lt;p class=&quot;MsoNormal&quot; style=&quot;margin: 0pt 0pt 0.0001pt ; font-family: &amp;#34;times new roman&amp;#34; ; font-size: 10.5pt&quot;&gt;&lt;span style=&quot;font-size: 10.5pt&quot;&gt;.&lt;/span&gt;&lt;span style=&quot;font-size: 12pt&quot;&gt;/cmd/generate/generate.go&lt;/span&gt;&lt;span style=&quot;font-size: 12pt&quot;&gt;-&amp;gt;&lt;/span&gt;&lt;span style=&quot;font-size: 12pt&quot;&gt;type Schema struct&lt;/span&gt;&lt;span style=&quot;font-size: 12pt&quot;&gt;&lt;font face=&quot;宋体&quot;&gt;中也要添加该接口类型的实现类&lt;/font&gt;&lt;/span&gt;&lt;/p&gt;" style="rounded=1;whiteSpace=wrap;html=1;fontSize=12;glass=0;strokeWidth=1;shadow=0;fontFamily=宋体;align=left;" parent="WIyWlLk6GJQsqaUBKTNV-1" vertex="1">
          <mxGeometry x="470" y="335" width="280" height="110" as="geometry" />
        </mxCell>
        <mxCell id="WIyWlLk6GJQsqaUBKTNV-8" value="No" style="rounded=0;html=1;jettySize=auto;orthogonalLoop=1;fontSize=11;endArrow=block;endFill=0;endSize=8;strokeWidth=1;shadow=0;labelBackgroundColor=none;edgeStyle=orthogonalEdgeStyle;" parent="WIyWlLk6GJQsqaUBKTNV-1" edge="1">
          <mxGeometry x="0.3333" y="20" relative="1" as="geometry">
            <mxPoint as="offset" />
            <mxPoint x="470" y="870" as="sourcePoint" />
            <mxPoint x="470" y="930" as="targetPoint" />
          </mxGeometry>
        </mxCell>
        <mxCell id="WIyWlLk6GJQsqaUBKTNV-10" value="新增加的类型中，是否在某一层级的属性，有oneof的属性" style="rhombus;whiteSpace=wrap;html=1;shadow=0;fontFamily=Helvetica;fontSize=12;align=center;strokeWidth=1;spacing=6;spacingTop=-4;" parent="WIyWlLk6GJQsqaUBKTNV-1" vertex="1">
          <mxGeometry x="90" y="550" width="260" height="133" as="geometry" />
        </mxCell>
        <mxCell id="WIyWlLk6GJQsqaUBKTNV-11" value="Repair Lamp" style="rounded=1;whiteSpace=wrap;html=1;fontSize=12;glass=0;strokeWidth=1;shadow=0;" parent="WIyWlLk6GJQsqaUBKTNV-1" vertex="1">
          <mxGeometry x="530" y="840" width="120" height="40" as="geometry" />
        </mxCell>
        <mxCell id="rdsL-xD0S33hwiKFE4rl-1" value="该Schema中声明了哪些需要被生成Java类的istio的crd类型（crd类型是最顶层的类型，除非声明，否则无法被扫描到；每一个crd类型下的每个属性类型，也会被生成相对应的java类，这些都在处理过程中被扫描到，自动生成java类）&lt;br&gt;&lt;br&gt;处理到某一个类型是由接口实现的话，也需要在这个Schema声明一下，参考该Schema里面有个networking.LoadBalancerSettings_Simple" style="shape=process;whiteSpace=wrap;html=1;backgroundOutline=1;" vertex="1" parent="WIyWlLk6GJQsqaUBKTNV-1">
          <mxGeometry x="500" y="30" width="300" height="160" as="geometry" />
        </mxCell>
        <mxCell id="rdsL-xD0S33hwiKFE4rl-7" style="edgeStyle=orthogonalEdgeStyle;rounded=0;orthogonalLoop=1;jettySize=auto;html=1;entryX=0.5;entryY=0;entryDx=0;entryDy=0;" edge="1" parent="WIyWlLk6GJQsqaUBKTNV-1" source="rdsL-xD0S33hwiKFE4rl-6" target="WIyWlLk6GJQsqaUBKTNV-6">
          <mxGeometry relative="1" as="geometry" />
        </mxCell>
        <mxCell id="rdsL-xD0S33hwiKFE4rl-6" value="&lt;p class=&quot;MsoNormal&quot; style=&quot;margin: 0pt 0pt 0.0001pt&quot;&gt;&lt;font face=&quot;times new roman&quot;&gt;&lt;span style=&quot;font-size: 14px&quot;&gt;istio-client/src/main/java/me/snowdrop/istio/client/IstioDsl.java、DefaultIstioClient.java这两个类增加该类型的调用接口，供istioClient对这个类型进行增删改查调用，可参考已存在的WorkloadGroup等类型复制粘贴，该一下类型名即可&lt;/span&gt;&lt;/font&gt;&lt;br&gt;&lt;/p&gt;" style="rounded=1;whiteSpace=wrap;html=1;fontSize=12;glass=0;strokeWidth=1;shadow=0;fontFamily=宋体;align=left;" vertex="1" parent="WIyWlLk6GJQsqaUBKTNV-1">
          <mxGeometry x="25" y="160" width="390" height="110" as="geometry" />
        </mxCell>
      </root>
    </mxGraphModel>
  </diagram>
</mxfile>
